<svg width="244" height="115" viewBox="0 0 244 115" fill="none" xmlns="http://www.w3.org/2000/svg"><defs><linearGradient y2="0%" x2="0%" y1="100%" x1="0%" id="weatherDetailsOpacityGradient"><stop stop-color="#c4c4c4" offset="25%" stop-opacity="0.2"></stop><stop stop-color="#c4c4c4" offset="93.56%" stop-opacity="0"></stop></linearGradient><mask id="weatherDetailsOpacityMask"><rect fill="url(#weatherDetailsOpacityGradient)" x="0" y="0" width="244" height="115"></rect></mask></defs><defs><linearGradient id="TemperatureCardGradient" x1="0%" x2="100%" y1="0%" y2="0%"><stop offset="0" stop-color="#CC2635"></stop><stop offset="73.00%" stop-color="#CC2635"></stop><stop offset="73.00%" class="tempLineBackground-DS-EntryPoint1-1"></stop></linearGradient></defs><defs><path id="tempTrendArea" d="M0,67.41051106972893C17.109047619047622,61.20383610199717,34.218095238095245,54.99716113426543,48.800000000000004,55.517104627905375C63.381904761904764,56.03704812154532,75.43666666666667,63.283610076557004,97.60000000000001,63.44868611628388C119.76333333333335,63.61376215601076,152.03523809523813,56.69735228045284,178.12,51.55131388371612C204.20476190476188,46.4052754869794,224.10238095238094,43.029608569063875,244,39.65394165114835L244,115C224.10238095238094,115,204.20476190476188,115,178.12,115C152.03523809523813,115,119.76333333333335,115.00000000000001,97.60000000000001,115C75.43666666666667,114.99999999999999,63.381904761904764,115,48.800000000000004,115C34.218095238095245,115,17.109047619047622,115,0,115Z" stroke-width="1" stroke-linecap="round" stroke-linejoin="round"></path></defs><defs><g id="tempTrendPath"><path d="M4,62.721084212704305C20.548095238095236,56.946177938379975,37.09619047619047,51.171271664055645,51.2,51.655045175529345C65.30380952380953,52.138818687003045,76.96333333333334,58.881271984274775,98.4,59.034864473411965C119.83666666666667,59.188456962549154,151.0504761904762,52.753188643551766,176.28,47.965135526588035C201.5095238095238,43.177082409624305,220.7547619047619,40.03624449469421,240,36.89540657976411" stroke="url('#TemperatureCardGradient')" stroke-width="8" stroke-linecap="round" stroke-linejoin="round"></path><circle stroke="#fff" stroke-width="3" fill="#CC2635" cx="176.28" cy="47.965135526588035" r="10"></circle></g></defs><use x="0" y="0" width="244" height="115" href="#tempTrendArea" stroke="#CC2635" style="fill: rgb(204, 38, 53); mask: url(&quot;#weatherDetailsOpacityMask&quot;); stroke: none; box-shadow: rgb(255, 255, 255) 0px 2px 0px inset;"></use><use x="0" y="0" width="244" height="115" href="#tempTrendPath" style="box-shadow: rgb(255, 255, 255) 0px 2px 0px inset;"></use><g class="temperatureVal-DS-EntryPoint1-1"><text x="176.28" y="103">88°</text></g></svg>