<svg xmlns="http://www.w3.org/2000/svg" width="110" height="110" viewBox="0 0 180 180" fill="none">
<path d="M90 10 A 80 80, 0, 0, 1, 165.18 62.64 " fill="none" class="windPathBackground-DS-EntryPoint1-1" stroke-width="8" stroke-linecap="round" stroke-opacity="0.1" transform="rotate(10 90 90)" style="&#10;    STROKE: black;&#10;">
</path>
<path d="M90 10 A 80 80, 0, 0, 1, 165.18 62.64 " fill="none" class="windPathBackground-DS-EntryPoint1-1" stroke-width="8" stroke-linecap="round" stroke-opacity="0.1" transform="rotate(100 90 90)" style="&#10;    stroke: black;&#10;">
</path>
<path d="M90 10 A 80 80, 0, 0, 1, 165.18 62.64 " fill="none" class="windPathBackground-DS-EntryPoint1-1" stroke-width="8" stroke-linecap="round" stroke-opacity="0.1" transform="rotate(190 90 90)" style="&#10;    stroke: black;&#10;">
</path>
<path d="M90 10 A 80 80, 0, 0, 1, 165.18 62.64 " fill="none" class="windPathBackground-DS-EntryPoint1-1" stroke-width="8" stroke-linecap="round" stroke-opacity="0.1" transform="rotate(280 90 90)" style="&#10;    stroke: black;&#10;">
</path>
<path d="M103.89185421335442 11.215379759023364A 80 80, 0, 0, 1, 144.0472166092528 31.017813055190082" fill="none" stroke="rgba(85, 177, 126, 1)" stroke-width="8" stroke-linecap="round">
</path>
<g>
<path d="M 86.325 40.3742 C 86.9141 37.7765 90.5908 37.7098 91.2738 40.2843 L 112.0053 118.42840000000001 C 113.7162 124.8774 108.87360000000001 131.20420000000001 102.2016 131.23680000000002 L 78.5064 131.35250000000002 C 71.94605 131.3845 67.06373 125.3014 68.51471 118.9034 L 86.325 40.3742Z" fill="rgba(85, 177, 126, 1)" transform="rotate(-160 90 90)"><animateMotion id="windDirectionAni753" dur="0.8s" repeatCount="0" begin="weatherDetailsWindCardLink753.mouseenter" end="weatherDetailsWindCardLink753.mouseleave" path="M0 0Z"/><animateMotion dur="1.5s" begin="windDirectionAni753.end" end="weatherDetailsWindCardLink753.mouseleave" repeatCount="indefinite" path="M0 0Z"/>
</path></g>
</svg>